# xmcd CD database file generated by OrangeCD 6.4
#
# Track frame offsets:
#	150
#	22622
#	40385
#	63547
#	69314
#	141307
#	177376
#	180183
#	218191
#	232833
#	260905
#	266797
#	270246
#	292369
#	306129
#
# Disc length: 4511 seconds
#
# Revision: 1
# Processed by: cddbd v1.5.2PL0 Copyright (c) Steve Scherf et al.
# Submitted via: OrangeCD 6.4
#
DISCID=e0119d0f
DTITLE=Jimi Hendrix - Rockin' The USA Vol.1
DYEAR=2008
DGENRE=Blues Rock
TTITLE0=Lover Man
TTITLE1=Fire
TTITLE2=Foxy Lady
TTITLE3=Busted Amp Rap
TTITLE4=Red House
TTITLE5=Hey Joe
TTITLE6=Sunshine Of Your Love
TTITLE7=Hear My Train A Comin'
TTITLE8=Can You Please Crawl Out Of Your Window
TTITLE9=Purple Haze
TTITLE10=Wild Thing
TTITLE11=Introduction
TTITLE12=Foxy Lady
TTITLE13=Fire
TTITLE14=Hear My Train A Comin'
EXTD=1-11: Fillmore East, New York 1968-05-10, 2nd(?) show\n12-15: Miami Pop Fe
EXTD=stival, Gulfstream Park Racetrack, Hallandale, FL 1968-05-18, 2nd show
EXTT0=
EXTT1=
EXTT2=
EXTT3=
EXTT4=
EXTT5=
EXTT6=
EXTT7=
EXTT8=
EXTT9=
EXTT10=
EXTT11=
EXTT12=
EXTT13=
EXTT14=
PLAYORDER=
